<svg width="40" height="40" xmlns="http://www.w3.org/2000/svg" xmlns:xlink="http://www.w3.org/1999/xlink" xml:space="preserve" overflow="hidden"><g transform="translate(-57 -144)"><g><g><g><g><path d="M6.11562 0.59375 6.11562 37.4062 31.8844 37.4062 31.8844 10.3906 22.0875 0.59375 6.11562 0.59375Z" stroke="#4A66AC" stroke-width="0.791659" stroke-linecap="butt" stroke-linejoin="miter" stroke-miterlimit="10" stroke-opacity="1" fill="none" fill-rule="nonzero" transform="matrix(1.02632 0 0 1 58 145)"/><path d="M22.0875 0.59375 22.0875 10.3906 31.8844 10.3906" stroke="#4A66AC" stroke-width="0.791659" stroke-linecap="butt" stroke-linejoin="miter" stroke-miterlimit="10" stroke-opacity="1" fill="none" fill-rule="nonzero" transform="matrix(1.02632 0 0 1 58 145)"/><path d="M12.2312 12.8844 17.1594 12.8844" stroke="#4A66AC" stroke-width="0.791659" stroke-linecap="butt" stroke-linejoin="miter" stroke-miterlimit="10" stroke-opacity="1" fill="none" fill-rule="nonzero" transform="matrix(1.02632 0 0 1 58 145)"/><path d="M12.2312 19 25.7688 19" stroke="#4A66AC" stroke-width="0.791659" stroke-linecap="butt" stroke-linejoin="miter" stroke-miterlimit="10" stroke-opacity="1" fill="none" fill-rule="nonzero" transform="matrix(1.02632 0 0 1 58 145)"/><path d="M12.2312 25.1156 25.7688 25.1156" stroke="#4A66AC" stroke-width="0.791659" stroke-linecap="butt" stroke-linejoin="miter" stroke-miterlimit="10" stroke-opacity="1" fill="none" fill-rule="nonzero" transform="matrix(1.02632 0 0 1 58 145)"/><path d="M12.2312 31.2906 23.275 31.2906" stroke="#4A66AC" stroke-width="0.791659" stroke-linecap="butt" stroke-linejoin="miter" stroke-miterlimit="10" stroke-opacity="1" fill="none" fill-rule="nonzero" transform="matrix(1.02632 0 0 1 58 145)"/></g></g></g></g></g></svg>