<svg width="39" height="40" xmlns="http://www.w3.org/2000/svg" xmlns:xlink="http://www.w3.org/1999/xlink" xml:space="preserve" overflow="hidden"><g transform="translate(-365 -144)"><g><g><g><g><path d="M395.272 161.803C395.984 163.525 396.341 165.366 396.341 167.325 396.341 175.459 389.809 182.109 381.556 182.109 373.303 182.109 366.891 175.578 366.891 167.444 366.891 159.309 373.422 152.659 381.616 152.659 383.634 152.659 385.416 153.016 387.138 153.728" stroke="#4A66AC" stroke-width="0.791659" stroke-linecap="butt" stroke-linejoin="miter" stroke-miterlimit="10" stroke-opacity="1" fill="none" fill-rule="nonzero"/><path d="M388.919 164.297C389.334 165.247 389.572 166.316 389.572 167.444 389.572 171.837 386.009 175.4 381.616 175.4 377.222 175.4 373.659 171.837 373.659 167.444 373.659 163.05 377.222 159.488 381.616 159.488 382.566 159.488 383.456 159.666 384.347 159.962" stroke="#4A66AC" stroke-width="0.791659" stroke-linecap="butt" stroke-linejoin="miter" stroke-miterlimit="10" stroke-opacity="1" fill="none" fill-rule="nonzero"/><path d="M381.556 167.444 401.269 147.672" stroke="#4A66AC" stroke-width="0.791659" stroke-linecap="butt" stroke-linejoin="miter" stroke-miterlimit="10" stroke-opacity="1" fill="none" fill-rule="nonzero"/><path d="M396.875 152.066 395.688 145.891 390.819 150.819 392.006 156.934 398.122 158.122 403.109 153.253Z" stroke="#4A66AC" stroke-width="0.791659" stroke-linecap="butt" stroke-linejoin="miter" stroke-miterlimit="10" stroke-opacity="1" fill="none" fill-rule="nonzero"/></g></g></g></g></g></svg>